<svg width="226" height="31" viewBox="0 0 226 31" fill="none" xmlns="http://www.w3.org/2000/svg">
<rect x="0.0393066" width="225" height="30" transform="rotate(0.0748724 0.0393066 0)" fill="#D9D9D9"/>
<path d="M216.511 21.7829L212.891 18.1532M214.855 13.4474C214.851 17.1293 211.862 20.1102 208.18 20.1053C204.498 20.1005 201.517 17.1119 201.522 13.43C201.527 9.74807 204.516 6.76721 208.197 6.77202C211.879 6.77683 214.86 9.76549 214.855 13.4474Z" stroke="#1E1E1E" stroke-width="1.6" stroke-linecap="round" stroke-linejoin="round"/>
<path d="M17.0042 17.5632L16.9292 18.2532C17.7092 18.7032 18.4042 18.9282 19.0142 18.9282C19.6242 18.9282 20.1042 18.8032 20.4542 18.5532C20.8042 18.3032 20.9792 17.9782 20.9792 17.5782C20.9792 17.1682 20.8642 16.8232 20.6342 16.5432C20.4042 16.2532 20.1142 16.0332 19.7642 15.8832C19.4142 15.7332 19.0342 15.5682 18.6242 15.3882C18.2242 15.1982 17.8492 15.0182 17.4992 14.8482C17.1492 14.6682 16.8592 14.4082 16.6292 14.0682C16.3992 13.7282 16.2842 13.3232 16.2842 12.8532C16.2842 12.1232 16.5842 11.5332 17.1842 11.0832C17.7942 10.6232 18.5792 10.3932 19.5392 10.3932C20.1292 10.3932 20.7342 10.4882 21.3542 10.6782L21.4592 10.2882L21.7442 10.2882L21.6242 12.8232L21.3392 12.8232L21.2342 12.1782C20.3842 11.6182 19.6392 11.3382 18.9992 11.3382C18.5592 11.3382 18.2192 11.4382 17.9792 11.6382C17.7392 11.8282 17.6192 12.1182 17.6192 12.5082C17.6192 12.8982 17.7742 13.2332 18.0842 13.5132C18.3942 13.7932 18.7692 14.0182 19.2092 14.1882C19.6592 14.3582 20.1042 14.5432 20.5442 14.7432C20.9942 14.9332 21.3742 15.2232 21.6842 15.6132C21.9942 15.9932 22.1492 16.4732 22.1492 17.0532C22.1492 17.9332 21.8242 18.6332 21.1742 19.1532C20.5242 19.6632 19.6542 19.9182 18.5642 19.9182C17.9242 19.9182 17.2042 19.8032 16.4042 19.5732L16.1942 19.9032L15.9242 19.8132L16.7342 17.4882L17.0042 17.5632ZM26.1692 19.9182C25.3692 19.9182 24.7092 19.6432 24.1892 19.0932C23.6792 18.5432 23.4242 17.7832 23.4242 16.8132C23.4242 15.8332 23.6892 15.0332 24.2192 14.4132C24.7492 13.7932 25.4492 13.4832 26.3192 13.4832C27.1992 13.4832 27.8492 13.6832 28.2692 14.0832C28.6892 14.4832 28.8992 15.1082 28.8992 15.9582C28.8992 16.1982 28.8842 16.4532 28.8542 16.7232L24.7142 16.7232C24.7142 17.4332 24.8692 18.0032 25.1792 18.4332C25.4892 18.8632 25.9342 19.0782 26.5142 19.0782C27.0942 19.0782 27.6742 18.8582 28.2542 18.4182L28.3592 17.8032L28.6142 17.8182L28.7192 19.9032L28.4792 19.9032L28.3442 19.5582C27.6942 19.7982 26.9692 19.9182 26.1692 19.9182ZM24.7442 15.9432L27.6542 15.9282C27.6542 15.3582 27.5442 14.9482 27.3242 14.6982C27.1042 14.4482 26.7592 14.3232 26.2892 14.3232C25.3592 14.3232 24.8442 14.8632 24.7442 15.9432ZM30.7039 13.3182L30.8389 13.6482C31.4789 13.5382 32.0239 13.4832 32.4739 13.4832C33.3239 13.4832 33.9739 13.6632 34.4239 14.0232C34.8839 14.3732 35.1139 14.8832 35.1139 15.5532L35.0839 17.0382L35.2189 19.2882L35.7289 19.3932L35.7139 19.6782L33.8539 19.8132L33.8539 19.1982C33.2639 19.6782 32.6639 19.9182 32.0539 19.9182C31.4439 19.9182 30.9639 19.7532 30.6139 19.4232C30.2739 19.0932 30.1039 18.6382 30.1039 18.0582C30.1039 17.4782 30.3539 17.0482 30.8539 16.7682C31.3539 16.4782 32.3889 16.2032 33.9589 15.9432L33.9589 15.5532C33.9589 15.1632 33.8439 14.8632 33.6139 14.6532C33.3939 14.4332 33.0639 14.3232 32.6239 14.3232C32.1839 14.3232 31.6189 14.4682 30.9289 14.7582L30.8689 15.3132L30.6139 15.3282L30.4639 13.3182L30.7039 13.3182ZM33.9289 16.7982C32.8989 16.9882 32.2139 17.1632 31.8739 17.3232C31.5439 17.4732 31.3789 17.7032 31.3789 18.0132C31.3789 18.3232 31.4839 18.5782 31.6939 18.7782C31.9039 18.9782 32.2039 19.0782 32.5939 19.0782C32.9939 19.0782 33.4139 18.8582 33.8539 18.4182L33.9289 16.7982ZM37.0201 13.7232L38.9551 13.5582L38.8951 14.5482C39.1551 14.1282 39.3901 13.8482 39.6001 13.7082C39.8101 13.5582 40.0651 13.4832 40.3651 13.4832C40.6651 13.4832 40.9601 13.5082 41.2501 13.5582L41.1751 15.2982L40.9201 15.2982L40.8151 14.6532C40.5251 14.5532 40.2801 14.5032 40.0801 14.5032C39.8901 14.5032 39.7101 14.5532 39.5401 14.6532C39.3701 14.7532 39.1451 14.9582 38.8651 15.2682L38.8051 16.3782L38.8051 17.0382L38.9251 19.3032L39.8251 19.4082L39.8101 19.6932L37.0801 19.6932L37.0651 19.4082L37.5151 19.3032L37.6501 17.0382L37.6501 16.3782L37.5151 14.1132L37.0051 14.0082L37.0201 13.7232ZM44.7752 19.9182C43.9052 19.9182 43.2102 19.6282 42.6902 19.0482C42.1802 18.4582 41.9252 17.6782 41.9252 16.7082C41.9252 15.7282 42.2252 14.9482 42.8252 14.3682C43.4252 13.7782 44.2252 13.4832 45.2252 13.4832C45.6552 13.4832 46.1152 13.5332 46.6052 13.6332L46.7252 13.3032L46.9652 13.3032L46.8602 15.3732L46.6052 15.3732L46.5602 14.8032C46.0002 14.4932 45.4702 14.3382 44.9702 14.3382C44.4802 14.3382 44.0652 14.5582 43.7252 14.9982C43.3852 15.4282 43.2152 15.9982 43.2152 16.7082C43.2152 17.4082 43.3702 17.9782 43.6802 18.4182C44.0002 18.8582 44.4402 19.0782 45.0002 19.0782C45.5602 19.0782 46.1052 18.8882 46.6352 18.5082L46.8902 17.9082L47.1602 17.9682L46.6952 20.0832L46.3952 20.0832L46.4102 19.6932C45.8802 19.8432 45.3352 19.9182 44.7752 19.9182ZM48.3594 19.6932L48.3444 19.4082L48.7944 19.3032L48.9294 16.9932L48.9294 13.3032L48.7944 11.0382L48.2844 10.9332L48.2994 10.6482L50.2344 10.4832L50.0844 13.3032L50.0844 14.3382C50.7844 13.7682 51.4594 13.4832 52.1094 13.4832C52.7694 13.4832 53.2594 13.6732 53.5794 14.0532C53.9094 14.4332 54.0744 14.9632 54.0744 15.6432L54.0744 17.0232L54.1944 19.3032L54.6444 19.4082L54.6294 19.6932L52.1544 19.6932L52.1394 19.3782L52.7844 19.3032L52.9194 17.0232L52.9194 15.7032C52.9194 15.3232 52.8094 15.0332 52.5894 14.8332C52.3794 14.6232 52.0444 14.5182 51.5844 14.5182C51.1244 14.5182 50.6244 14.7182 50.0844 15.1182L50.0844 16.9932L50.2194 19.3032L50.8944 19.3782L50.8794 19.6932L48.3594 19.6932ZM57.9562 18.8832C57.7962 19.3732 57.4412 19.7232 56.8912 19.9332C56.3912 19.7832 56.0412 19.4332 55.8412 18.8832C56.0412 18.3332 56.3912 17.9782 56.8912 17.8182C57.4512 18.0382 57.8062 18.3932 57.9562 18.8832ZM61.1203 18.8832C60.9603 19.3732 60.6053 19.7232 60.0553 19.9332C59.5553 19.7832 59.2053 19.4332 59.0053 18.8832C59.2053 18.3332 59.5553 17.9782 60.0553 17.8182C60.6153 18.0382 60.9703 18.3932 61.1203 18.8832ZM64.2843 18.8832C64.1243 19.3732 63.7693 19.7232 63.2193 19.9332C62.7193 19.7832 62.3693 19.4332 62.1693 18.8832C62.3693 18.3332 62.7193 17.9782 63.2193 17.8182C63.7793 18.0382 64.1343 18.3932 64.2843 18.8832Z" fill="#AAAAAA" fill-opacity="0.72"/>
</svg>
