<svg width="26" height="26" viewBox="0 0 26 26" fill="none" xmlns="http://www.w3.org/2000/svg">
<g clip-path="url(#clip0_1_1046)">
<path d="M21.7347 4.83049C21.2034 4.29751 20.5722 3.87443 19.8774 3.58544C19.1825 3.29644 18.4374 3.14719 17.6848 3.14621C16.9323 3.14523 16.1868 3.29253 15.4912 3.57971C14.7956 3.86688 14.1633 4.28831 13.6306 4.8199L12.525 5.92262L11.4222 4.81701C10.349 3.74093 8.89218 3.13528 7.37235 3.13329C5.85253 3.1313 4.39416 3.73315 3.31808 4.80642C2.242 5.8797 1.63634 7.33648 1.63436 8.85631C1.63237 10.3761 2.23421 11.8345 3.30749 12.9106L12.5038 22.1309L21.7241 12.9346C22.2571 12.4033 22.6802 11.7722 22.9692 11.0773C23.2582 10.3824 23.4074 9.63735 23.4084 8.88476C23.4094 8.13217 23.2621 7.38676 22.9749 6.69111C22.6877 5.99547 22.2663 5.36322 21.7347 4.83049Z" stroke="#1E1E1E" stroke-width="2.5" stroke-linecap="round" stroke-linejoin="round"/>
</g>
<defs>
<clipPath id="clip0_1_1046">
<rect width="25" height="25" fill="white" transform="translate(0.0327148) rotate(0.0748724)"/>
</clipPath>
</defs>
</svg>
