<svg width="26" height="26" viewBox="0 0 26 26" fill="none" xmlns="http://www.w3.org/2000/svg">
<g clip-path="url(#clip0_1_1042)">
<path d="M1.073 1.04297L5.23966 1.04841L8.0131 15C8.10773 15.4797 8.36806 15.9108 8.74853 16.2179C9.12901 16.525 9.60537 16.6885 10.0942 16.6798L20.2192 16.693C20.7081 16.703 21.1849 16.5408 21.5661 16.2347C21.9474 15.9286 22.2089 15.4981 22.3048 15.0186L23.9828 6.28124L6.27452 6.2581M10.4208 21.8885C10.42 22.4638 9.95303 22.9296 9.37774 22.9288C8.80244 22.9281 8.33668 22.4611 8.33743 21.8858C8.33819 21.3105 8.80516 20.8448 9.38046 20.8455C9.95576 20.8463 10.4215 21.3132 10.4208 21.8885ZM21.8791 21.9035C21.8783 22.4788 21.4114 22.9446 20.8361 22.9438C20.2608 22.9431 19.795 22.4761 19.7958 21.9008C19.7965 21.3255 20.2635 20.8597 20.8388 20.8605C21.4141 20.8612 21.8798 21.3282 21.8791 21.9035Z" stroke="#1E1E1E" stroke-width="2.5" stroke-linecap="round" stroke-linejoin="round"/>
</g>
<defs>
<clipPath id="clip0_1_1042">
<rect width="25" height="25" fill="white" transform="translate(0.0327148) rotate(0.0748724)"/>
</clipPath>
</defs>
</svg>
