<svg width="26" height="26" viewBox="0 0 26 26" fill="none" xmlns="http://www.w3.org/2000/svg">
<g clip-path="url(#clip0_163_44)">
<path d="M16.6708 21.8967L16.6735 19.8134C16.675 18.7083 16.2374 17.648 15.457 16.8655C14.6766 16.0831 13.6174 15.6427 12.5123 15.6413L5.22064 15.6318C4.11557 15.6303 3.05519 16.0679 2.27277 16.8483C1.49035 17.6287 1.04998 18.6879 1.04853 19.793L1.04581 21.8763M17.7261 11.4814L19.8067 13.5675L23.9788 9.40628M13.044 7.30866C13.041 9.60984 11.1731 11.4729 8.87192 11.4699C6.57073 11.4669 4.70769 9.59895 4.7107 7.29777C4.7137 4.99659 6.58162 3.13354 8.88281 3.13655C11.184 3.13956 13.047 5.00748 13.044 7.30866Z" stroke="#1E1E1E" stroke-width="2.5" stroke-linecap="round" stroke-linejoin="round"/>
</g>
<defs>
<clipPath id="clip0_163_44">
<rect width="25" height="25" fill="white" transform="translate(0.0327148) rotate(0.0748724)"/>
</clipPath>
</defs>
</svg>
